<svg width="18" height="18" viewBox="0 0 256 262" xmlns="http://www.w3.org/2000/svg" preserveAspectRatio="xMidYMid">
  <path d="M255.68 131.37c0-10.73-.86-18.56-2.72-26.69H130.55v48.44h71.87c-1.45 12.06-9.3 30.23-26.77 42.45l-.24 1.58 38.86 30.13 2.69.27c24.71-22.8 38.72-56.38 38.72-96.18" fill="#4285F4"/>
  <path d="M130.55 261.1c35.21 0 64.82-11.62 86.43-31.52l-41.19-31.95c-11.02 7.63-25.8 12.96-45.24 12.96-34.55 0-63.9-22.8-74.38-54.35l-1.54.13-40.3 31.18-.53 1.49C34.4 231.02 79.4 261.1 130.55 261.1" fill="#34A853"/>
  <path d="M56.17 156.24c-2.77-8.13-4.36-16.85-4.36-25.82 0-8.97 1.59-17.69 4.2-25.82l-.07-1.73-40.83-31.66-1.34.63C4.66 86.28 0 108.22 0 130.42c0 22.2 4.66 44.14 13.77 63.58l42.4-37.76" fill="#FBBC05"/>
  <path d="M130.55 50.74c24.5 0 41.01 10.59 50.4 19.44l36.8-35.89C195.19 12.34 165.76 0 130.55 0 79.4 0 34.4 30.07 13.77 66.84l42.4 37.76c10.48-31.55 39.83-53.86 74.38-53.86" fill="#EB4335"/>
</svg>
